{
	"asset":{
		"generator":"Khronos glTF Blender I/O v4.2.57",
		"version":"2.0"
	},
	"extensionsUsed":[
		"KHR_materials_specular"
	],
	"scene":0,
	"scenes":[
		{
			"name":"Scene",
			"nodes":[
				0,
				1,
				4,
				9
			]
		}
	],
	"nodes":[
		{
			"name":"cube_tool.mdl/arrow_front"
		},
		{
			"name":"cube_tool.mdl/arrow_back"
		},
		{
			"name":"root",
			"rotation":[
				-0.5000001192092896,
				-0.4999999403953552,
				0.4999999403953552,
				0.5000000596046448
			]
		},
		{
			"name":"button",
			"rotation":[
				-0.5000001192092896,
				-0.4999999403953552,
				0.4999999403953552,
				0.5000000596046448
			],
			"translation":[
				0,
				5.849999904632568,
				0
			]
		},
		{
			"children":[
				2,
				3
			],
			"name":"button_02.mdl",
			"scale":[
				0.009999999776482582,
				0.009999999776482582,
				0.009999999776482582
			]
		},
		{
			"name":"tip",
			"rotation":[
				-8.881784197001252e-16,
				1.4901164746561335e-08,
				0,
				1
			],
			"translation":[
				12.60000228881836,
				1.7791969639802119e-06,
				-8.56665337778395e-07
			]
		},
		{
			"children":[
				5
			],
			"name":"switch",
			"rotation":[
				-1.0522572566160505e-14,
				0.37139078974723816,
				-5.739585036087548e-15,
				0.9284766316413879
			],
			"translation":[
				1.899999976158142,
				1.9999998807907104,
				-1.9767431506771682e-13
			]
		},
		{
			"children":[
				6
			],
			"name":"root",
			"rotation":[
				-2.2197245641564223e-07,
				-1.0048591563601838e-14,
				0.7071067690849304,
				0.7071067690849304
			],
			"translation":[
				9.999999974752427e-07,
				0,
				0
			]
		},
		{
			"mesh":0,
			"name":"button_03.mdl/button_03.smd",
			"skin":0
		},
		{
			"children":[
				8,
				7
			],
			"name":"button_03.mdl",
			"scale":[
				0.009999999776482582,
				0.009999999776482582,
				0.009999999776482582
			]
		}
	],
	"materials":[
		{
			"doubleSided":true,
			"extensions":{
				"KHR_materials_specular":{
					"specularFactor":0.20000000298023224
				}
			},
			"extras":{
				"path_id":"materials/maxofs2d/models/button_03"
			},
			"name":"materials/maxofs2d/models/button_03",
			"normalTexture":{
				"index":0
			},
			"pbrMetallicRoughness":{
				"baseColorTexture":{
					"index":1
				},
				"metallicFactor":0,
				"roughnessFactor":0.6159999966621399
			}
		}
	],
	"meshes":[
		{
			"extras":{
				"path_id":"button_03.mdl/button_03.smd"
			},
			"name":"button_03.mdl/button_03.smd",
			"primitives":[
				{
					"attributes":{
						"POSITION":0,
						"NORMAL":1,
						"TEXCOORD_0":2,
						"JOINTS_0":3,
						"WEIGHTS_0":4
					},
					"indices":5,
					"material":0
				}
			]
		}
	],
	"textures":[
		{
			"sampler":0,
			"source":0
		},
		{
			"sampler":0,
			"source":1
		}
	],
	"images":[
		{
			"mimeType":"image/png",
			"name":"materials/maxofs2d/models/button_03_normal",
			"uri":"materialsmaxofs2dmodelsbutton_03_normal.png"
		},
		{
			"mimeType":"image/png",
			"name":"materials/maxofs2d/models/button_03",
			"uri":"materialsmaxofs2dmodelsbutton_03.png"
		}
	],
	"skins":[
		{
			"inverseBindMatrices":6,
			"joints":[
				7,
				6,
				5
			],
			"name":"button_03.mdl"
		},
		{
			"inverseBindMatrices":7,
			"joints":[
				2,
				3
			],
			"name":"button_02.mdl"
		}
	],
	"accessors":[
		{
			"bufferView":0,
			"componentType":5126,
			"count":558,
			"max":[
				0.07999999821186066,
				0.14669057726860046,
				0.11999999731779099
			],
			"min":[
				-0.07999999821186066,
				-0.00196496001444757,
				-0.12303825467824936
			],
			"type":"VEC3"
		},
		{
			"bufferView":1,
			"componentType":5126,
			"count":558,
			"type":"VEC3"
		},
		{
			"bufferView":2,
			"componentType":5126,
			"count":558,
			"type":"VEC2"
		},
		{
			"bufferView":3,
			"componentType":5121,
			"count":558,
			"type":"VEC4"
		},
		{
			"bufferView":4,
			"componentType":5126,
			"count":558,
			"type":"VEC4"
		},
		{
			"bufferView":5,
			"componentType":5123,
			"count":2424,
			"type":"SCALAR"
		},
		{
			"bufferView":6,
			"componentType":5126,
			"count":3,
			"type":"MAT4"
		},
		{
			"bufferView":7,
			"componentType":5126,
			"count":2,
			"type":"MAT4"
		}
	],
	"bufferViews":[
		{
			"buffer":0,
			"byteLength":6696,
			"byteOffset":0,
			"target":34962
		},
		{
			"buffer":0,
			"byteLength":6696,
			"byteOffset":6696,
			"target":34962
		},
		{
			"buffer":0,
			"byteLength":4464,
			"byteOffset":13392,
			"target":34962
		},
		{
			"buffer":0,
			"byteLength":2232,
			"byteOffset":17856,
			"target":34962
		},
		{
			"buffer":0,
			"byteLength":8928,
			"byteOffset":20088,
			"target":34962
		},
		{
			"buffer":0,
			"byteLength":4848,
			"byteOffset":29016,
			"target":34963
		},
		{
			"buffer":0,
			"byteLength":192,
			"byteOffset":33864
		},
		{
			"buffer":0,
			"byteLength":128,
			"byteOffset":34056
		}
	],
	"samplers":[
		{
			"magFilter":9729,
			"minFilter":9987
		}
	],
	"buffers":[
		{
			"byteLength":34184,
			"uri":"untitled.bin"
		}
	]
}
